<svg width="19" height="19" xmlns="http://www.w3.org/2000/svg" class="cf-icon-svg" fill="#000000">

 <g>
  <title>Layer 1</title>
  <g stroke-width="0" id="SVGRepo_bgCarrier"/>
  <g stroke-linejoin="round" stroke-linecap="round" id="SVGRepo_tracerCarrier"/>
  <g stroke="null" id="SVGRepo_iconCarrier">
   <path stroke="null" id="svg_1" d="m18.9386,9.5a9.4386,9.36842 0 1 1 -9.4386,-9.36842a9.4386,9.36842 0 0 1 9.4386,9.36842zm-3.50408,0.00703a5.93452,5.89039 0 1 0 -5.93452,5.89039a5.93452,5.89039 0 0 0 5.93452,-5.89039zm-8.71064,-0.46842l-2.19211,0a4.99892,4.96175 0 0 1 3.02625,-4.09634q0.11798,-0.04918 0.23596,-0.09251a9.08701,9.01945 0 0 0 -1.0701,4.18885zm0,0.93684a9.08465,9.0171 0 0 0 1.07128,4.18885q-0.12034,-0.04333 -0.23714,-0.09251a4.98476,4.9477 0 0 1 -3.02625,-4.09634l2.19211,0zm0.94386,-0.93684a10.66561,10.58631 0 0 1 0.19231,-1.64182a7.27244,7.21837 0 0 1 0.52502,-1.65704c0.34097,-0.7202 0.77868,-1.18628 1.11493,-1.18628c0.33625,0 0.77396,0.46608 1.11493,1.18628a7.29132,7.2371 0 0 1 0.52502,1.65704a10.71045,10.63081 0 0 1 0.19231,1.64182l-3.66453,0zm3.66453,0.93684a10.70455,10.62496 0 0 1 -0.19231,1.64182a7.29957,7.2453 0 0 1 -0.52502,1.65704c-0.34097,0.72137 -0.77868,1.18628 -1.11493,1.18628c-0.33625,0 -0.77396,-0.46491 -1.11493,-1.18628a7.28188,7.22774 0 0 1 -0.52502,-1.65704a10.66089,10.58163 0 0 1 -0.19231,-1.64182l3.66453,0zm1.69659,-3.97104a4.96824,4.9313 0 0 1 1.43939,3.0342l-2.19211,0a9.08229,9.01476 0 0 0 -1.07128,-4.18885q0.12034,0.04333 0.23714,0.09368a4.9647,4.92779 0 0 1 1.58686,1.06097zm-0.75273,3.97104l2.19211,0a5.0001,4.96292 0 0 1 -3.02625,4.09634q-0.11798,0.05036 -0.23596,0.09368a9.08111,9.01359 0 0 0 1.0701,-4.19003z"/>
  </g>
 </g>
</svg>