<svg width="19" height="19" xmlns="http://www.w3.org/2000/svg" class="cf-icon-svg" fill="#ffffff">

 <g>
  <title>Layer 1</title>
  <g stroke-width="0" id="SVGRepo_bgCarrier"/>
  <g stroke-linejoin="round" stroke-linecap="round" id="SVGRepo_tracerCarrier"/>
  <g stroke="null" id="SVGRepo_iconCarrier">
   <path stroke="null" id="svg_1" d="m18.95946,9.5a9.45946,9.48649 0 1 1 -9.45946,-9.48649a9.45946,9.48649 0 0 1 9.45946,9.48649zm-3.51182,0.00711a5.94764,5.96463 0 1 0 -5.94764,5.96463a5.94764,5.96463 0 0 0 5.94764,-5.96463zm-8.7299,-0.47432l-2.19696,0a5.00997,5.02428 0 0 1 3.03294,-4.14797q0.11824,-0.0498 0.23649,-0.09368a9.10709,9.13311 0 0 0 -1.07247,4.24165zm0,0.94865a9.10473,9.13074 0 0 0 1.07365,4.24165q-0.12061,-0.04388 -0.23767,-0.09368a4.99578,5.01005 0 0 1 -3.03294,-4.14797l2.19696,0zm0.94595,-0.94865a10.68919,10.71973 0 0 1 0.19274,-1.66251a7.28851,7.30934 0 0 1 0.52618,-1.67792c0.34172,-0.72927 0.78041,-1.20123 1.1174,-1.20123c0.33699,0 0.77568,0.47195 1.1174,1.20123a7.30743,7.32831 0 0 1 0.52618,1.67792a10.73412,10.76479 0 0 1 0.19274,1.66251l-3.67264,0zm3.67264,0.94865a10.72821,10.75886 0 0 1 -0.19274,1.66251a7.31571,7.33661 0 0 1 -0.52618,1.67792c-0.34172,0.73046 -0.78041,1.20123 -1.1174,1.20123c-0.33699,0 -0.77568,-0.47077 -1.1174,-1.20123a7.29797,7.31882 0 0 1 -0.52618,-1.67792a10.68446,10.71499 0 0 1 -0.19274,-1.66251l3.67264,0zm1.70034,-4.02108a4.97922,4.99345 0 0 1 1.44257,3.07244l-2.19696,0a9.10236,9.12837 0 0 0 -1.07365,-4.24165q0.12061,0.04388 0.23767,0.09486a4.97568,4.98989 0 0 1 1.59037,1.07434zm-0.75439,4.02108l2.19696,0a5.01115,5.02547 0 0 1 -3.03294,4.14797q-0.11824,0.05099 -0.23649,0.09486a9.10118,9.12719 0 0 0 1.07247,-4.24283z"/>
  </g>
 </g>
</svg>